<?xml version="1.0" encoding="utf-8"?>
<svg viewBox="64.576 56.274 383.763 291.512" xmlns="http://www.w3.org/2000/svg" xmlns:bx="https://boxy-svg.com">
  <text style="white-space: pre; fill: rgb(51, 51, 51); font-family: Arial, sans-serif; font-size: 28.5px;" x="209.191" y="192.853"> </text>
  <path style="fill: rgb(255, 255, 255);" transform="matrix(1.0196150541305542, 0, 0, 0.9549920558929443, -168.7462615966797, -61.79082107543945)" d="M 603 274 A 142 142 0 1 1 461 132 L 461 163.24 A 110.76 110.76 0 1 0 571.76 274 Z" bx:shape="pie 461 274 110.76 142 90 360 1@f261560e"/>
  <path d="M 233.395 215.275 H 276.978 L 276.978 206.775 L 316.978 220.275 L 276.978 233.775 L 276.978 225.275 H 233.395 V 215.275 Z" style="stroke: rgb(0, 0, 0); fill: rgb(51, 51, 51);" transform="matrix(-0.6070400476455688, -0.7946709394454956, 0.7946709394454956, -0.6070400476455688, 264.0949401855469, 510.76214599609375)" bx:shape="arrow 233.395 206.775 83.583 27 10 40 0 1@8cc0f049"/>
  <path d="M 237.085 226.345 H 311.911 L 311.911 217.845 L 351.911 231.345 L 311.911 244.845 L 311.911 236.345 H 237.085 V 226.345 Z" style="stroke: rgb(0, 0, 0); fill: rgb(51, 51, 51);" transform="matrix(0.7792989611625671, -0.6266529560089111, 0.6266529560089111, 0.7792989611625671, -30.426984786987305, 172.77264404296875)" bx:shape="arrow 237.085 217.845 114.826 27 10 40 0 1@70fe571a"/>
  <path d="M 226.701 234.647 H 268.077 L 268.077 226.147 L 304.216 239.647 L 268.077 253.147 L 268.077 244.647 H 226.701 V 234.647 Z" style="stroke: rgb(0, 0, 0); fill: rgb(51, 51, 51);" transform="matrix(-0.010751999914646149, 0.9999420046806335, -0.9999420046806335, -0.010751999914646149, 544.977783203125, -1.191688060760498)" bx:shape="arrow 226.701 226.147 77.515 27 10 36.139 0 1@e7a1334a"/>
  <text style="white-space: pre; fill: rgb(51, 51, 51); font-family: Arial, sans-serif; font-size: 25.8px;" x="137.454" y="231.345" transform="matrix(6.098261833190918, 0, 0, 6.190299034118652, -780.6220703125, -1147.87548828125)">DA</text>
</svg>