<?xml version="1.0" encoding="utf-8"?>
<svg viewBox="24.908 42.435 435.425 329.336" xmlns="http://www.w3.org/2000/svg" xmlns:bx="https://boxy-svg.com">
  <defs>
    <linearGradient gradientUnits="userSpaceOnUse" x1="461" y1="132" x2="461" y2="416" id="gradient-0">
      <stop offset="0" style="stop-color: rgba(62, 180, 137, 1)"/>
      <stop offset="1" style="stop-color: rgba(36, 104, 79, 1)"/>
    </linearGradient>
  </defs>
  <text style="white-space: pre; fill: rgb(51, 51, 51); font-family: Arial, sans-serif; font-size: 28.5px;" x="211.958" y="188.959"> </text>
  <path style="fill: url(#gradient-0);" transform="matrix(1.0196150541305542, 0, 0, 0.9549920558929443, -165.97872924804688, -65.68586730957031)" d="M 603 274 A 142 142 0 1 1 461 132 L 461 163.24 A 110.76 110.76 0 1 0 571.76 274 Z" bx:shape="pie 461 274 110.76 142 90 360 1@f261560e"/>
  <path d="M 233.395 215.275 H 276.978 L 276.978 206.775 L 316.978 220.275 L 276.978 233.775 L 276.978 225.275 H 233.395 V 215.275 Z" style="fill: rgb(255, 255, 255);" transform="matrix(-0.6070400476455688, -0.7946709394454956, 0.7946709394454956, -0.6070400476455688, 266.8624572753906, 506.86709594726557)" bx:shape="arrow 233.395 206.775 83.583 27 10 40 0 1@8cc0f049"/>
  <path d="M 237.085 226.345 H 311.911 L 311.911 217.845 L 351.911 231.345 L 311.911 244.845 L 311.911 236.345 H 237.085 V 226.345 Z" style="fill: rgb(255, 255, 255);" transform="matrix(0.7792989611625671, -0.6266529560089111, 0.6266529560089111, 0.7792989611625671, -27.65945816040039, 168.8776092529297)" bx:shape="arrow 237.085 217.845 114.826 27 10 40 0 1@70fe571a"/>
  <path d="M 226.701 234.647 H 268.077 L 268.077 226.147 L 304.216 239.647 L 268.077 253.147 L 268.077 244.647 H 226.701 V 234.647 Z" style="fill: rgb(255, 255, 255);" transform="matrix(-0.010751999914646149, 0.9999420046806335, -0.9999420046806335, -0.010751999914646149, 547.7453002929688, -5.086733818054199)" bx:shape="arrow 226.701 226.147 77.515 27 10 36.139 0 1@e7a1334a"/>
  <text style="fill: rgb(255, 255, 255); font-family: Arial, sans-serif; font-size: 25.8px; white-space: pre;" transform="matrix(6.098261833190918, 0, 0, 6.190299034118652, -777.8545532226562, -1151.7706298828125)" x="137.454" y="231.345">DA</text>
</svg>