<?xml version="1.0" encoding="utf-8"?>
<svg viewBox="31.365 48.893 435.424 328.413" xmlns="http://www.w3.org/2000/svg" xmlns:bx="https://boxy-svg.com">
  <defs>
    <linearGradient gradientUnits="userSpaceOnUse" x1="461" y1="132" x2="461" y2="416" id="gradient-0">
      <stop offset="0" style="stop-color: rgba(83, 189, 255, 1)"/>
      <stop offset="1" style="stop-color: rgba(0, 146, 236, 1)"/>
    </linearGradient>
  </defs>
  <text style="white-space: pre; fill: rgb(51, 51, 51); font-family: Arial, sans-serif; font-size: 28.5px;" x="214.726" y="195.006"> </text>
  <path style="fill: url(#gradient-0);" transform="matrix(1.0196150541305542, 0, 0, 0.9549920558929443, -163.211181640625, -59.638301849365234)" d="M 603 274 A 142 142 0 1 1 461 132 L 461 163.24 A 110.76 110.76 0 1 0 571.76 274 Z" bx:shape="pie 461 274 110.76 142 90 360 1@f261560e"/>
  <path d="M 233.395 215.275 H 276.978 L 276.978 206.775 L 316.978 220.275 L 276.978 233.775 L 276.978 225.275 H 233.395 V 215.275 Z" style="fill: rgb(255, 255, 255);" transform="matrix(-0.6070400476455688, -0.7946709394454956, 0.7946709394454956, -0.6070400476455688, 269.6300354003906, 512.9146728515625)" bx:shape="arrow 233.395 206.775 83.583 27 10 40 0 1@8cc0f049"/>
  <path d="M 237.085 226.345 H 311.911 L 311.911 217.845 L 351.911 231.345 L 311.911 244.845 L 311.911 236.345 H 237.085 V 226.345 Z" style="fill: rgb(255, 255, 255);" transform="matrix(0.7792989611625671, -0.6266529560089111, 0.6266529560089111, 0.7792989611625671, -24.89189910888672, 174.9251708984375)" bx:shape="arrow 237.085 217.845 114.826 27 10 40 0 1@70fe571a"/>
  <path d="M 226.701 234.647 H 268.077 L 268.077 226.147 L 304.216 239.647 L 268.077 253.147 L 268.077 244.647 H 226.701 V 234.647 Z" style="fill: rgb(255, 255, 255);" transform="matrix(-0.010751999914646149, 0.9999420046806335, -0.9999420046806335, -0.010751999914646149, 550.5128784179688, 0.9608330130577087)" bx:shape="arrow 226.701 226.147 77.515 27 10 36.139 0 1@e7a1334a"/>
  <text style="fill: rgb(255, 255, 255); font-family: Arial, sans-serif; font-size: 25.8px; white-space: pre;" transform="matrix(6.098261833190918, 0, 0, 6.190299034118652, -775.0869750976562, -1145.722900390625)" x="137.454" y="231.345">DA</text>
</svg>